<mxfile host="app.diagrams.net" modified="2024-02-04T09:40:24.023Z" agent="Mozilla/5.0 (Macintosh; Intel Mac OS X 10.15; rv:122.0) Gecko/20100101 Firefox/122.0" version="22.1.20" etag="3iR5MHH198zK40epvZ9U" type="github">
  <diagram name="Sayfa -1" id="MzBcglwn2jvQm2CnmgWZ">
    <mxGraphModel>
      <root>
        <mxCell id="0" />
        <mxCell id="1" parent="0" />
      </root>
    </mxGraphModel>
  </diagram>
</mxfile>
